<mxfile host="Electron" modified="2021-03-30T14:42:34.383Z" agent="5.0 (Windows NT 10.0; Win64; x64) AppleWebKit/537.36 (KHTML, like Gecko) draw.io/14.1.8 Chrome/87.0.4280.88 Electron/11.1.1 Safari/537.36" etag="HcCqYl2-LimJTI3ebnjz" compressed="false" version="14.1.8" type="device">
  <diagram id="6dDwJSKmZnyB2wmGCAZK" name="Seite-1">
    <mxGraphModel dx="769" dy="484" grid="1" gridSize="10" guides="1" tooltips="1" connect="1" arrows="1" fold="1" page="1" pageScale="1" pageWidth="827" pageHeight="1169" background="#000000" math="0" shadow="0">
      <root>
        <mxCell id="0" />
        <mxCell id="1" parent="0" />
        <mxCell id="wMeYjHuKRRvStjP3zx4F-1" value="Phase&lt;sub&gt;1&lt;/sub&gt;&lt;br&gt;&lt;ul&gt;&lt;li&gt;Tätigkeit&lt;sub&gt;1&lt;/sub&gt;&lt;/li&gt;&lt;li&gt;Tätigkeit&lt;sub&gt;2&lt;/sub&gt;&lt;br&gt;&lt;/li&gt;&lt;li&gt;Tätigkeit&lt;sub&gt;3&lt;/sub&gt;&lt;br&gt;&lt;/li&gt;&lt;li&gt;...&lt;/li&gt;&lt;/ul&gt;" style="rounded=0;whiteSpace=wrap;html=1;align=left;verticalAlign=top;spacingTop=0;spacingLeft=5;fillColor=#fff2cc;strokeColor=#d6b656;" vertex="1" parent="1">
          <mxGeometry x="120" y="40" width="160" height="160" as="geometry" />
        </mxCell>
        <mxCell id="wMeYjHuKRRvStjP3zx4F-2" value="Phase&lt;sub&gt;2&lt;/sub&gt;&lt;br&gt;&lt;ul&gt;&lt;li&gt;Tätigkeit&lt;sub&gt;1&lt;/sub&gt;&lt;/li&gt;&lt;li&gt;Tätigkeit&lt;sub&gt;2&lt;/sub&gt;&lt;br&gt;&lt;/li&gt;&lt;li&gt;Tätigkeit&lt;sub&gt;3&lt;/sub&gt;&lt;br&gt;&lt;/li&gt;&lt;li&gt;...&lt;/li&gt;&lt;/ul&gt;" style="rounded=0;whiteSpace=wrap;html=1;align=left;verticalAlign=top;spacingTop=0;spacingLeft=5;fillColor=#fff2cc;strokeColor=#d6b656;" vertex="1" parent="1">
          <mxGeometry x="320" y="40" width="160" height="160" as="geometry" />
        </mxCell>
        <mxCell id="wMeYjHuKRRvStjP3zx4F-6" value="" style="rhombus;whiteSpace=wrap;html=1;fillColor=#d5e8d4;strokeColor=#82b366;" vertex="1" parent="1">
          <mxGeometry x="280" y="160" width="80" height="80" as="geometry" />
        </mxCell>
        <mxCell id="wMeYjHuKRRvStjP3zx4F-5" value="Quality-&lt;br&gt;gate&lt;sub&gt;1&lt;/sub&gt;" style="rhombus;whiteSpace=wrap;html=1;fillColor=#ffe6cc;strokeColor=#d79b00;" vertex="1" parent="1">
          <mxGeometry x="240" y="160" width="80" height="80" as="geometry" />
        </mxCell>
        <mxCell id="wMeYjHuKRRvStjP3zx4F-7" value="Meilen-&lt;br&gt;stein&lt;sub&gt;1&lt;/sub&gt;" style="text;html=1;strokeColor=none;fillColor=none;align=center;verticalAlign=middle;whiteSpace=wrap;rounded=0;fontColor=#FFFFFF;" vertex="1" parent="1">
          <mxGeometry x="350" y="250" width="80" height="40" as="geometry" />
        </mxCell>
        <mxCell id="wMeYjHuKRRvStjP3zx4F-8" value="" style="endArrow=classic;html=1;entryX=1;entryY=1;entryDx=0;entryDy=0;exitX=0.25;exitY=0;exitDx=0;exitDy=0;fontColor=#FFFFFF;labelBackgroundColor=none;strokeColor=#FFFFFF;" edge="1" parent="1" source="wMeYjHuKRRvStjP3zx4F-7" target="wMeYjHuKRRvStjP3zx4F-6">
          <mxGeometry width="50" height="50" relative="1" as="geometry">
            <mxPoint x="370" y="250" as="sourcePoint" />
            <mxPoint x="380" y="240" as="targetPoint" />
          </mxGeometry>
        </mxCell>
        <mxCell id="wMeYjHuKRRvStjP3zx4F-9" value="" style="rhombus;whiteSpace=wrap;html=1;fillColor=#d5e8d4;strokeColor=#82b366;" vertex="1" parent="1">
          <mxGeometry x="480" y="160" width="80" height="80" as="geometry" />
        </mxCell>
        <mxCell id="wMeYjHuKRRvStjP3zx4F-10" value="Quality-&lt;br&gt;gate&lt;sub&gt;2&lt;/sub&gt;" style="rhombus;whiteSpace=wrap;html=1;fillColor=#ffe6cc;strokeColor=#d79b00;" vertex="1" parent="1">
          <mxGeometry x="440" y="160" width="80" height="80" as="geometry" />
        </mxCell>
      </root>
    </mxGraphModel>
  </diagram>
</mxfile>
